<?xml version="1.0" standalone="no"?>
<!DOCTYPE svg PUBLIC "-//W3C//DTD SVG 20010904//EN"
 "http://www.w3.org/TR/2001/REC-SVG-20010904/DTD/svg10.dtd">
<svg version="1.0" xmlns="http://www.w3.org/2000/svg"
 width="300.000000pt" height="300.000000pt" viewBox="0 0 300.000000 300.000000"
 preserveAspectRatio="xMidYMid meet">
<metadata>
Created by potrace 1.11, written by Peter Selinger 2001-2013
</metadata>
<g transform="translate(0.000000,300.000000) scale(0.100000,-0.100000)"
fill="#000000" stroke="none">
<path d="M819 2546 c-2 -2 -22 -6 -44 -10 -105 -15 -198 -47 -282 -97 -60 -36
-193 -158 -193 -177 0 -7 -4 -12 -9 -12 -14 0 -107 -197 -121 -255 -33 -136
-43 -320 -25 -454 36 -273 167 -478 378 -591 202 -108 473 -125 716 -44 60 20
188 83 202 100 13 15 18 224 6 224 -5 0 -27 -15 -50 -34 -150 -122 -352 -177
-552 -152 -186 23 -325 122 -401 283 -38 80 -38 80 -60 197 -13 76 -14 295 -1
371 30 169 125 321 245 392 93 55 173 75 306 78 166 3 312 -44 448 -145 31
-23 60 -43 64 -44 4 0 7 48 8 108 l1 109 -50 32 c-70 44 -189 89 -290 110 -34
7 -290 16 -296 11z"/>
<path d="M1579 2509 c-6 -3 -9 -46 -7 -95 l3 -89 288 1 287 0 0 -718 c0 -395
3 -719 8 -719 4 -1 53 -2 110 -3 l102 -2 1 26 c0 14 1 338 2 720 l2 695 275 2
c151 0 282 2 290 2 12 1 15 17 15 86 -1 46 -4 87 -8 91 -8 9 -1355 12 -1368 3z"/>
</g>
</svg>
